<svg width="32" height="32" viewBox="0 0 32 32" fill="none" xmlns="http://www.w3.org/2000/svg">
<path d="M28 11L28 24C28 25.1046 27.1046 26 26 26L20 26" stroke="url(#paint0_linear_14074_37469)" stroke-width="2" stroke-linecap="round"/>
<path d="M5 7.99255C5 6.88798 5.89317 6.00077 6.99774 6.0007C11.0017 6.00045 18.531 5.99973 23.0009 6.0001C24.1053 6.0002 25 6.89553 25 7.99991L25 24C25 25.1046 24.1046 26 23 26L7 26C5.89543 26 5 25.111 5 24.0065C5 20.1101 5 11.8071 5 7.99255Z" fill="url(#paint1_linear_14074_37469)" stroke="url(#paint2_linear_14074_37469)" stroke-width="2" stroke-linecap="round"/>
<path d="M9 18L20 18L9 18Z" fill="#8C95A6"/>
<path d="M9 18L20 18" stroke="#14142B" stroke-width="2" stroke-linecap="round" stroke-linejoin="round"/>
<path d="M9 22H16H9Z" fill="#8C95A6"/>
<path d="M9 22H16" stroke="#14142B" stroke-width="2" stroke-linecap="round" stroke-linejoin="round"/>
<path d="M10.5 15C9.11929 15 8 13.8807 8 12.5C8 11.1193 9.11929 10 10.5 10C11.8807 10 13 11.1193 13 12.5C13 13.8807 11.8807 15 10.5 15Z" fill="#14142B"/>
<path d="M11.2227 8.55078C10.6997 8.18431 10.0702 8.30243 9.7193 8.5505" stroke="#14142B" stroke-width="1.25" stroke-linecap="round" stroke-linejoin="round"/>
<defs>
<linearGradient id="paint0_linear_14074_37469" x1="28.4" y1="5" x2="28.4" y2="27" gradientUnits="userSpaceOnUse">
<stop offset="0.142857" stop-color="#8FA0F5"/>
<stop offset="1" stop-color="#DEE5FD"/>
</linearGradient>
<linearGradient id="paint1_linear_14074_37469" x1="22.5" y1="27" x2="22.4609" y2="5.00007" gradientUnits="userSpaceOnUse">
<stop stop-color="#DEE5FD"/>
<stop offset="0.863636" stop-color="#8FA0F5"/>
</linearGradient>
<linearGradient id="paint2_linear_14074_37469" x1="15" y1="5" x2="15" y2="27" gradientUnits="userSpaceOnUse">
<stop offset="0.142857" stop-color="#8FA0F5"/>
<stop offset="1" stop-color="#DEE5FD"/>
</linearGradient>
</defs>
</svg>
