<svg width="32" height="32" viewBox="0 0 32 32" fill="none" xmlns="http://www.w3.org/2000/svg">
<path fill-rule="evenodd" clip-rule="evenodd" d="M4 13C4 12.4477 4.44772 12 5 12H27C27.5523 12 28 12.4477 28 13V21.2412C28 22.0462 28 22.7106 27.9558 23.2518C27.9099 23.8139 27.8113 24.3306 27.564 24.816C27.1805 25.5686 26.5686 26.1805 25.816 26.564C25.3306 26.8113 24.8139 26.9099 24.2518 26.9558C23.7106 27 23.0463 27 22.2413 27H9.75868C8.95372 27 8.28936 27 7.74817 26.9558C7.18608 26.9099 6.66937 26.8113 6.18404 26.564C5.43139 26.1805 4.81947 25.5686 4.43597 24.816C4.18868 24.3306 4.09012 23.8139 4.04419 23.2518C3.99998 22.7106 3.99999 22.0463 4 21.2413L4 13Z" fill="url(#paint0_linear_14074_37465)"/>
<path fill-rule="evenodd" clip-rule="evenodd" d="M9.7587 6H22.2413C23.0463 5.99999 23.7106 5.99998 24.2518 6.04419C24.8139 6.09012 25.3306 6.18868 25.816 6.43597C26.5686 6.81947 27.1805 7.43139 27.564 8.18404C27.8113 8.66937 27.9099 9.18608 27.9558 9.74817C28 10.2894 28 10.9537 28 11.7587V21.2412C28 22.0462 28 22.7106 27.9558 23.2518C27.9099 23.8139 27.8113 24.3306 27.564 24.816C27.1805 25.5686 26.5686 26.1805 25.816 26.564C25.3306 26.8113 24.8139 26.9099 24.2518 26.9558C23.7106 27 23.0463 27 22.2413 27H9.75868C8.95372 27 8.28936 27 7.74817 26.9558C7.18608 26.9099 6.66937 26.8113 6.18404 26.564C5.43139 26.1805 4.81947 25.5686 4.43597 24.816C4.18868 24.3306 4.09012 23.8139 4.04419 23.2518C3.99998 22.7106 3.99999 22.0463 4 21.2413V11.7587C3.99999 10.9537 3.99998 10.2894 4.04419 9.74817C4.09012 9.18608 4.18868 8.66937 4.43597 8.18404C4.81947 7.43139 5.43139 6.81947 6.18404 6.43597C6.66937 6.18868 7.18608 6.09012 7.74817 6.04419C8.28937 5.99998 8.95373 5.99999 9.7587 6ZM7.91104 8.03755C7.47262 8.07337 7.24842 8.1383 7.09202 8.21799C6.7157 8.40973 6.40973 8.71569 6.21799 9.09202C6.1383 9.24842 6.07337 9.47262 6.03755 9.91104C6.00078 10.3611 6 10.9434 6 11.8V21.2C6 22.0566 6.00078 22.6389 6.03755 23.089C6.07337 23.5274 6.1383 23.7516 6.21799 23.908C6.40973 24.2843 6.7157 24.5903 7.09202 24.782C7.24842 24.8617 7.47262 24.9266 7.91104 24.9624C8.36113 24.9992 8.94342 25 9.8 25H22.2C23.0566 25 23.6389 24.9992 24.089 24.9624C24.5274 24.9266 24.7516 24.8617 24.908 24.782C25.2843 24.5903 25.5903 24.2843 25.782 23.908C25.8617 23.7516 25.9266 23.5274 25.9624 23.089C25.9992 22.6389 26 22.0566 26 21.2V11.8C26 10.9434 25.9992 10.3611 25.9624 9.91104C25.9266 9.47262 25.8617 9.24842 25.782 9.09202C25.5903 8.71569 25.2843 8.40973 24.908 8.21799C24.7516 8.1383 24.5274 8.07337 24.089 8.03755C23.6389 8.00078 23.0566 8 22.2 8H9.8C8.94342 8 8.36113 8.00078 7.91104 8.03755Z" fill="url(#paint1_linear_14074_37465)"/>
<path fill-rule="evenodd" clip-rule="evenodd" d="M20 4C20.5523 4 21 4.44772 21 5V9C21 9.55228 20.5523 10 20 10C19.4477 10 19 9.55228 19 9V5C19 4.44772 19.4477 4 20 4Z" fill="url(#paint2_linear_14074_37465)"/>
<path fill-rule="evenodd" clip-rule="evenodd" d="M12 4C12.5523 4 13 4.44772 13 5V9C13 9.55228 12.5523 10 12 10C11.4477 10 11 9.55228 11 9V5C11 4.44772 11.4477 4 12 4Z" fill="url(#paint3_linear_14074_37465)"/>
<rect x="9" y="16" width="3" height="2" rx="1" fill="#14142B"/>
<rect x="9" y="20" width="3" height="2" rx="1" fill="#14142B"/>
<rect x="14" y="16" width="3" height="2" rx="1" fill="#14142B"/>
<rect x="19" y="16" width="3" height="2" rx="1" fill="#14142B"/>
<rect x="14" y="20" width="3" height="2" rx="1" fill="#14142B"/>
<defs>
<linearGradient id="paint0_linear_14074_37465" x1="6.99998" y1="27" x2="7.03913" y2="4.00007" gradientUnits="userSpaceOnUse">
<stop stop-color="#DEE5FD"/>
<stop offset="0.820652" stop-color="#8FA0F5"/>
</linearGradient>
<linearGradient id="paint1_linear_14074_37465" x1="6.99998" y1="27" x2="7.03913" y2="4.00007" gradientUnits="userSpaceOnUse">
<stop stop-color="#DEE5FD"/>
<stop offset="0.820652" stop-color="#8FA0F5"/>
</linearGradient>
<linearGradient id="paint2_linear_14074_37465" x1="6.99998" y1="27" x2="7.03913" y2="4.00007" gradientUnits="userSpaceOnUse">
<stop stop-color="#DEE5FD"/>
<stop offset="0.820652" stop-color="#8FA0F5"/>
</linearGradient>
<linearGradient id="paint3_linear_14074_37465" x1="6.99998" y1="27" x2="7.03913" y2="4.00007" gradientUnits="userSpaceOnUse">
<stop stop-color="#DEE5FD"/>
<stop offset="0.820652" stop-color="#8FA0F5"/>
</linearGradient>
</defs>
</svg>
