<svg width="32" height="32" viewBox="0 0 32 32" fill="none" xmlns="http://www.w3.org/2000/svg">
<path fill-rule="evenodd" clip-rule="evenodd" d="M20.3829 5.00328C21.8968 5.01438 23.2442 5.06557 23.8809 5.29722C25.7161 5.9652 27.9219 7.53562 28.4786 9.73765C28.6257 10.3197 28.7819 11.5754 28.8849 13.0033C28.9458 13.8492 28.9764 14.2725 28.838 14.6654C28.6617 15.1656 28.2363 15.6226 27.7501 15.8343C27.3682 16.0005 26.9119 16.0003 26.0001 16.0003C25.5851 16.0003 25.2627 16.0025 25.0001 16.016V13.4222C24.9999 12.8701 24.5523 12.4222 24.0001 12.4222C23.448 12.4224 23.0002 12.8702 23.0001 13.4222V18.6859C23.0001 18.6937 23.0009 18.7015 23.0011 18.7093C23.0009 18.801 23.0001 18.8979 23.0001 19.0003V23.8002C23.0001 24.9203 23.0003 25.4807 22.7823 25.9086C22.5906 26.2849 22.2846 26.5908 21.9083 26.7826C21.4805 27.0005 20.9206 27.0003 19.8009 27.0003H12.2003C11.0805 27.0003 10.5206 27.0004 10.0929 26.7826C9.71658 26.5909 9.41059 26.2848 9.21884 25.9086C9.00085 25.4807 9.00009 24.9203 9.00009 23.8002V19.0003C9.00009 18.896 8.99932 18.7976 8.99911 18.7044C8.99922 18.6983 9.00009 18.6921 9.00009 18.6859V13.4222C8.99994 12.8701 8.55228 12.4222 8.00009 12.4222C7.44804 12.4224 7.00024 12.8702 7.00009 13.4222V16.016C6.73752 16.0026 6.41485 16.0003 6.00009 16.0003C5.07198 16.0003 4.60775 16.0008 4.22763 15.8363C3.74084 15.6256 3.31926 15.1762 3.13974 14.6771C2.99971 14.2874 3.02691 13.8588 3.08114 13.0023C3.15083 11.9017 3.28085 10.7125 3.52255 9.73765C4.04452 7.63251 6.28413 5.96528 8.11923 5.29722C8.75408 5.06614 10.0355 5.01555 11.5177 5.00425C11.9684 5.00082 12.194 4.99916 12.4132 5.04722C12.6395 5.09688 12.8621 5.18758 13.0577 5.31187C13.2471 5.43222 13.4096 5.59665 13.7345 5.92418C14.4764 6.67221 14.8474 7.0466 15.2706 7.19957C15.7098 7.35826 16.1908 7.35824 16.63 7.19957C17.0532 7.04661 17.4242 6.67218 18.1661 5.92418C18.4907 5.59691 18.6537 5.43315 18.8429 5.31285C19.0385 5.18852 19.261 5.09692 19.4874 5.04722C19.7064 4.99918 19.932 4.99997 20.3829 5.00328Z" fill="url(#paint0_linear_14074_37468)"/>
<path d="M18.5 16C17.6716 16 17 15.3284 17 14.5C17 13.6716 17.6716 13 18.5 13C19.3284 13 20 13.6716 20 14.5C20 15.3284 19.3284 16 18.5 16Z" fill="#14142B"/>
<path d="M18.9269 11.9117C18.5443 11.6632 18.3035 11.7562 18.1186 11.9266" stroke="#14142B" stroke-linecap="round" stroke-linejoin="round"/>
<defs>
<linearGradient id="paint0_linear_14074_37468" x1="6.27449" y1="27.0003" x2="6.30768" y2="5.002" gradientUnits="userSpaceOnUse">
<stop stop-color="#DEE5FD"/>
<stop offset="0.820652" stop-color="#8FA0F5"/>
</linearGradient>
</defs>
</svg>
