<svg width="32" height="32" viewBox="0 0 32 32" fill="none" xmlns="http://www.w3.org/2000/svg">
<path d="M28 11L28 22C28 24.2091 26.2091 26 24 26L20 26" stroke="url(#paint0_linear_14074_37464)" stroke-width="2" stroke-linecap="round" stroke-linejoin="round"/>
<path d="M5 9.19427C5 8.07847 5 7.52057 5.21797 7.09276C5.40971 6.71644 5.71561 6.4105 6.09193 6.21874C6.51972 6.00074 7.0797 6.0007 8.19966 6.00062C11.984 6.00035 17.7383 5.99987 21.8016 6.00003C22.9207 6.00008 23.4802 6.0001 23.908 6.21809C24.2843 6.40982 24.5903 6.71585 24.782 7.09212C25 7.51994 25 8.07983 25 9.19962L25 22.8C25 23.9201 25 24.4802 24.782 24.908C24.5903 25.2843 24.2843 25.5903 23.908 25.782C23.4802 26 22.9201 26 21.8 26L8.2 26C7.07989 26 6.51984 26 6.09202 25.782C5.71569 25.5903 5.40973 25.2843 5.21799 24.908C5 24.4802 5 23.9213 5 22.8037C5 19.0363 5 12.9162 5 9.19427Z" fill="url(#paint1_linear_14074_37464)" stroke="url(#paint2_linear_14074_37464)" stroke-width="2" stroke-linecap="round" stroke-linejoin="round"/>
<path d="M9 18L20 18L9 18Z" fill="#8C95A6"/>
<path d="M9 18L20 18" stroke="white" stroke-width="2" stroke-linecap="round" stroke-linejoin="round"/>
<path d="M9 22H16H9Z" fill="#8C95A6"/>
<path d="M9 22H16" stroke="white" stroke-width="2" stroke-linecap="round" stroke-linejoin="round"/>
<path d="M10.5 15C9.11929 15 8 13.8807 8 12.5C8 11.1193 9.11929 10 10.5 10C11.8807 10 13 11.1193 13 12.5C13 13.8807 11.8807 15 10.5 15Z" fill="white"/>
<path d="M11.2227 8.55078C10.6997 8.18431 10.0702 8.30243 9.7193 8.5505" stroke="white" stroke-width="1.25" stroke-linecap="round" stroke-linejoin="round"/>
<defs>
<linearGradient id="paint0_linear_14074_37464" x1="27.9611" y1="19.5438" x2="19.9276" y2="18.9416" gradientUnits="userSpaceOnUse">
<stop offset="0.151" stop-color="#3E31FA"/>
<stop offset="1" stop-color="#8760F6"/>
</linearGradient>
<linearGradient id="paint1_linear_14074_37464" x1="16.3917" y1="25.9027" x2="13.6083" y2="6.09732" gradientUnits="userSpaceOnUse">
<stop offset="0.151" stop-color="#3E31FA"/>
<stop offset="1" stop-color="#8760F6"/>
</linearGradient>
<linearGradient id="paint2_linear_14074_37464" x1="16.3917" y1="25.9027" x2="13.6083" y2="6.09732" gradientUnits="userSpaceOnUse">
<stop offset="0.151" stop-color="#3E31FA"/>
<stop offset="1" stop-color="#8760F6"/>
</linearGradient>
</defs>
</svg>
