<svg width="32" height="32" viewBox="0 0 32 32" fill="none" xmlns="http://www.w3.org/2000/svg">
<path d="M5 11.9337C5 9.85672 5 8.81823 5.35968 8.02492C5.67606 7.3271 6.1809 6.75976 6.80183 6.40421C7.50774 6 8.43183 6 10.28 6H21.72C23.5682 6 24.4923 6 25.1982 6.40421C25.8191 6.75976 26.3239 7.3271 26.6403 8.02492C27 8.81823 27 9.85672 27 11.9337V20.0663C27 22.1433 27 23.1818 26.6403 23.9751C26.3239 24.6729 25.8191 25.2402 25.1982 25.5958C24.4923 26 23.5682 26 21.72 26H10.28C8.43183 26 7.50774 26 6.80183 25.5958C6.1809 25.2402 5.67606 24.6729 5.35968 23.9751C5 23.1818 5 22.1433 5 20.0663V11.9337Z" fill="url(#paint0_linear_14074_37459)" stroke="url(#paint1_linear_14074_37459)" stroke-width="2" stroke-linecap="round" stroke-linejoin="round"/>
<path d="M13 12.4434C13 11.9723 13 11.7368 13.0986 11.604C13.1845 11.4883 13.3163 11.4153 13.4599 11.4037C13.6248 11.3905 13.8245 11.5153 14.224 11.765L19.9146 15.3216C20.2745 15.5466 20.4545 15.659 20.5162 15.803C20.5701 15.9288 20.5701 16.0712 20.5162 16.197C20.4545 16.341 20.2745 16.4534 19.9146 16.6784L14.224 20.235C13.8245 20.4847 13.6248 20.6095 13.4599 20.5963C13.3163 20.5847 13.1845 20.5117 13.0986 20.396C13 20.2632 13 20.0277 13 19.5566V12.4434Z" fill="white" stroke="white" stroke-linecap="round" stroke-linejoin="round"/>
<defs>
<linearGradient id="paint0_linear_14074_37459" x1="14.4691" y1="25.9027" x2="17.0081" y2="6.03052" gradientUnits="userSpaceOnUse">
<stop offset="0.151" stop-color="#3E31FA"/>
<stop offset="1" stop-color="#8760F6"/>
</linearGradient>
<linearGradient id="paint1_linear_14074_37459" x1="14.4691" y1="25.9027" x2="17.0081" y2="6.03052" gradientUnits="userSpaceOnUse">
<stop offset="0.151" stop-color="#3E31FA"/>
<stop offset="1" stop-color="#8760F6"/>
</linearGradient>
</defs>
</svg>
