<svg width="32" height="32" viewBox="0 0 32 32" fill="none" xmlns="http://www.w3.org/2000/svg">
<path d="M21.8635 26C23.7628 26 24.7125 26 25.4078 25.6302C26.0185 25.3053 26.4984 24.7902 26.7696 24.1682C27.0784 23.46 26.9819 22.544 26.7888 20.7121L26.009 13.3121C25.8485 11.7885 25.7682 11.0266 25.4103 10.4511C25.0952 9.94427 24.6324 9.5391 24.0802 9.28663C23.4533 9 22.6634 9 21.0836 9L10.9164 9C9.33656 9 8.54666 9 7.91978 9.28663C7.36763 9.5391 6.90485 9.94427 6.58966 10.4511C6.23183 11.0266 6.15155 11.7885 5.99098 13.3121L5.21115 20.7121C5.0181 22.544 4.92158 23.46 5.23039 24.1682C5.50164 24.7902 5.98145 25.3053 6.59218 25.6302C7.28748 26 8.23717 26 10.1365 26H21.8635Z" fill="url(#paint0_linear_14074_37453)"/>
<path fill-rule="evenodd" clip-rule="evenodd" d="M10.8763 8L21.1237 8C21.8795 7.99999 22.5059 7.99998 23.0196 8.03886C23.555 8.0794 24.0482 8.16635 24.5202 8.38218C25.2564 8.7188 25.8735 9.25902 26.2937 9.93486C26.5631 10.3682 26.7025 10.835 26.7985 11.3473C26.8906 11.8388 26.9543 12.4429 27.0311 13.1718L27.8195 20.6539C27.9122 21.5329 27.9883 22.2552 27.9987 22.8444C28.0095 23.4537 27.9544 24.0193 27.7197 24.5576C27.358 25.387 26.7182 26.0738 25.9039 26.5069C25.3755 26.788 24.8007 26.8986 24.1744 26.9502C23.5688 27 22.8199 27 21.9085 27H10.0915C9.18009 27 8.43119 27 7.8256 26.9502C7.19929 26.8986 6.62453 26.788 6.09606 26.5069C5.28175 26.0738 4.64201 25.387 4.28034 24.5576C4.04562 24.0193 3.99049 23.4537 4.00126 22.8444C4.01168 22.2553 4.08781 21.533 4.18046 20.6539L4.96893 13.1718C5.04574 12.4429 5.10939 11.8388 5.2015 11.3473C5.29752 10.835 5.43686 10.3682 5.7063 9.93486C6.12654 9.25902 6.74359 8.7188 7.47979 8.38218C7.95181 8.16635 8.44495 8.0794 8.98043 8.03886C9.49412 7.99998 10.1205 7.99999 10.8763 8ZM9.14102 10.0328C8.72987 10.0639 8.51462 10.1203 8.35977 10.1911C7.99167 10.3594 7.68315 10.6295 7.47303 10.9674C7.38463 11.1096 7.30492 11.3115 7.23119 11.7048C7.15519 12.1104 7.09902 12.6364 7.0171 13.4138L6.23727 20.8138C6.13893 21.747 6.07262 22.3845 6.06389 22.8787C6.05534 23.3624 6.10635 23.6089 6.18045 23.7788C6.36128 24.1935 6.68115 24.5369 7.0883 24.7535C7.25513 24.8422 7.50287 24.9164 8.00007 24.9574C8.50805 24.9992 9.16898 25 10.1365 25H21.8635C22.831 25 23.492 24.9992 23.9999 24.9574C24.4971 24.9164 24.7449 24.8422 24.9117 24.7535C25.3188 24.5369 25.6387 24.1935 25.8196 23.7788C25.8936 23.6089 25.9447 23.3624 25.9361 22.8787C25.9274 22.3845 25.8611 21.747 25.7627 20.8138L24.9829 13.4138C24.901 12.6364 24.8448 12.1104 24.7688 11.7048C24.6951 11.3115 24.6154 11.1096 24.527 10.9674C24.3169 10.6295 24.0083 10.3594 23.6402 10.1911C23.4854 10.1203 23.2701 10.0639 22.859 10.0328C22.4351 10.0007 21.8896 10 21.0836 10L10.9164 10C10.1104 10 9.56489 10.0007 9.14102 10.0328Z" fill="url(#paint1_linear_14074_37453)"/>
<path fill-rule="evenodd" clip-rule="evenodd" d="M16 5C13.7214 5 11.8741 6.79086 11.8741 9V12C11.8741 12.5523 11.4123 13 10.8427 13C10.273 13 9.81122 12.5523 9.81122 12V9C9.81122 5.68629 12.582 3 16 3C19.418 3 22.1888 5.68629 22.1888 9V12C22.1888 12.5523 21.727 13 21.1573 13C20.5877 13 20.1259 12.5523 20.1259 12V9C20.1259 6.79086 18.2786 5 16 5Z" fill="url(#paint2_linear_14074_37453)"/>
<rect x="20" y="10" width="2" height="3" rx="1" fill="#14142B"/>
<rect x="10" y="10" width="2" height="3" rx="1" fill="#14142B"/>
<defs>
<linearGradient id="paint0_linear_14074_37453" x1="6.99998" y1="27" x2="7.04261" y2="3.00007" gradientUnits="userSpaceOnUse">
<stop stop-color="#DEE5FD"/>
<stop offset="0.820652" stop-color="#8FA0F5"/>
</linearGradient>
<linearGradient id="paint1_linear_14074_37453" x1="6.99998" y1="27" x2="7.04261" y2="3.00007" gradientUnits="userSpaceOnUse">
<stop stop-color="#DEE5FD"/>
<stop offset="0.820652" stop-color="#8FA0F5"/>
</linearGradient>
<linearGradient id="paint2_linear_14074_37453" x1="6.99998" y1="27" x2="7.04261" y2="3.00007" gradientUnits="userSpaceOnUse">
<stop stop-color="#DEE5FD"/>
<stop offset="0.820652" stop-color="#8FA0F5"/>
</linearGradient>
</defs>
</svg>
