<svg width="32" height="32" viewBox="0 0 32 32" fill="none" xmlns="http://www.w3.org/2000/svg">
<path d="M21.6846 26C23.526 26 24.4468 26 25.1209 25.6302C25.713 25.3053 26.1781 24.7902 26.4411 24.1682C26.7405 23.46 26.6469 22.544 26.4598 20.7121L25.7037 13.3121C25.548 11.7885 25.4702 11.0266 25.1233 10.4511C24.8177 9.94427 24.3691 9.5391 23.8337 9.28664C23.226 9 22.4602 9 20.9286 9L11.0714 9C9.53981 9 8.77401 9 8.16625 9.28663C7.63095 9.5391 7.18228 9.94427 6.87671 10.4511C6.52979 11.0266 6.45195 11.7885 6.29628 13.3121L5.54025 20.7121C5.35309 22.544 5.25951 23.46 5.5589 24.1682C5.82188 24.7902 6.28705 25.3053 6.87915 25.6302C7.55324 26 8.47396 26 10.3154 26H21.6846Z" stroke="#5E6A83" stroke-width="2" stroke-linecap="round" stroke-linejoin="round"/>
<path d="M21 13V10C21 7.23858 18.7614 5 16 5C13.2386 5 11 7.23858 11 10L11 13" stroke="#5E6A83" stroke-width="2" stroke-linecap="round" stroke-linejoin="round"/>
</svg>
