<svg width="32" height="32" viewBox="0 0 32 32" fill="none" xmlns="http://www.w3.org/2000/svg">
<path d="M28 11L28 22C28 24.2091 26.2091 26 24 26L20 26" stroke="#788398" stroke-width="2" stroke-linecap="round" stroke-linejoin="round"/>
<path d="M25 22.8057C25 23.9215 25 24.4794 24.782 24.9072C24.5903 25.2836 24.2844 25.5895 23.9081 25.7813C23.4803 25.9993 22.9203 25.9993 21.8003 25.9994C18.016 25.9996 12.2617 26.0001 8.1984 26C7.07932 25.9999 6.51978 25.9999 6.09197 25.7819C5.71571 25.5902 5.40969 25.2841 5.21798 24.9079C5 24.4801 5 23.9202 5 22.8004V9.20001C5 8.0799 5 7.51984 5.21799 7.09202C5.40973 6.71569 5.71569 6.40973 6.09202 6.21799C6.51984 6 7.07989 6 8.2 6H21.8C22.9201 6 23.4802 6 23.908 6.21799C24.2843 6.40973 24.5903 6.71569 24.782 7.09202C25 7.51984 25 8.07867 25 9.19631C25 12.9637 25 19.0838 25 22.8057Z" stroke="#788398" stroke-width="2" stroke-linecap="round" stroke-linejoin="round"/>
<path d="M9 19L20 19L9 19Z" fill="#788398"/>
<path d="M9 19L20 19" stroke="#788398" stroke-width="2" stroke-linecap="round" stroke-linejoin="round"/>
<path d="M9 22H16H9Z" fill="#788398"/>
<path d="M9 22H16" stroke="#788398" stroke-width="2" stroke-linecap="round" stroke-linejoin="round"/>
<path d="M10.5 15.8008C9.11929 15.8008 8 14.6815 8 13.3008C8 11.9201 9.11929 10.8008 10.5 10.8008C11.8807 10.8008 13 11.9201 13 13.3008C13 14.6815 11.8807 15.8008 10.5 15.8008Z" fill="#788398"/>
<path d="M11.2227 9.55078C10.6997 9.18431 10.0702 9.30243 9.7193 9.5505" stroke="#788398" stroke-width="1.25" stroke-linecap="round" stroke-linejoin="round"/>
</svg>
