<svg width="32" height="32" viewBox="0 0 32 32" fill="none" xmlns="http://www.w3.org/2000/svg">
<path d="M23 18V13" stroke="#5E6A83" stroke-width="2" stroke-linecap="round" stroke-linejoin="round"/>
<path d="M9 13V18" stroke="#5E6A83" stroke-width="2" stroke-linecap="round" stroke-linejoin="round"/>
<path d="M23.0966 6.28185C22.4959 6.06499 21.5304 6.01499 20.243 6.00346C19.8459 5.9999 19.6473 5.99812 19.4516 6.03568C19.1937 6.08518 18.9399 6.18897 18.7212 6.3344C18.5553 6.44472 18.4106 6.58937 18.1213 6.87867L18.1213 6.87868C17.4624 7.53762 17.1329 7.86709 16.7654 8.01933C16.2753 8.22232 15.7247 8.22232 15.2346 8.01933C14.8671 7.86709 14.5376 7.53762 13.8787 6.87868L13.8787 6.87867C13.5894 6.58937 13.4447 6.44472 13.2788 6.3344C13.0601 6.18897 12.8063 6.08518 12.5484 6.03568C12.3527 5.99812 12.1541 5.9999 11.757 6.00346C10.4696 6.01499 9.50413 6.06499 8.90343 6.28185C7.14563 6.91643 5 8.5 4.5 10.5C4.31596 11.2361 4.19967 11.9046 4.12617 12.5052C4.08844 12.8137 4.06957 12.9679 4.08861 13.1794C4.16118 13.9851 4.86968 14.7855 5.66057 14.9554C5.86819 15 6.07879 15 6.5 15C6.96466 15 7.19698 15 7.39018 15.0384C8.18356 15.1962 8.80376 15.8164 8.96157 16.6098C9 16.803 9 17.0353 9 17.5V22.8C9 23.9201 9 24.4802 9.21799 24.908C9.40973 25.2843 9.71569 25.5903 10.092 25.782C10.5198 26 11.0799 26 12.2 26H19.8C20.9201 26 21.4802 26 21.908 25.782C22.2843 25.5903 22.5903 25.2843 22.782 24.908C23 24.4802 23 23.9201 23 22.8V17.5C23 17.0353 23 16.803 23.0384 16.6098C23.1962 15.8164 23.8164 15.1962 24.6098 15.0384C24.803 15 25.0353 15 25.5 15C25.9176 15 26.1264 15 26.3332 14.9558C27.1243 14.7866 27.8281 13.9971 27.9058 13.192C27.9261 12.9815 27.9078 12.8225 27.8712 12.5045C27.7729 11.6502 27.6323 11.0192 27.5 10.5C26.9668 8.40807 24.8544 6.91643 23.0966 6.28185Z" stroke="#5E6A83" stroke-width="2" stroke-linecap="round" stroke-linejoin="round"/>
<path d="M18.5 16C17.6716 16 17 15.3284 17 14.5C17 13.6716 17.6716 13 18.5 13C19.3284 13 20 13.6716 20 14.5C20 15.3284 19.3284 16 18.5 16Z" fill="#5E6A83"/>
<path d="M18.9269 11.9117C18.5443 11.6632 18.3035 11.7562 18.1186 11.9266" stroke="#5E6A83" stroke-linecap="round" stroke-linejoin="round"/>
</svg>
