<svg width="24" height="24" viewBox="0 0 24 24" fill="none" xmlns="http://www.w3.org/2000/svg">
<path d="M6.375 9.77778V7.55556C6.375 4.48731 8.8934 2 12 2C14.3066 2 16.2889 3.37122 17.157 5.33333M12 14.7778V17M8.4 22H15.6C17.4902 22 18.4353 22 19.1572 21.6367C19.7923 21.3171 20.3086 20.8072 20.6321 20.18C21 19.4669 21 18.5335 21 16.6667V15.1111C21 13.2443 21 12.3108 20.6321 11.5978C20.3086 10.9706 19.7923 10.4607 19.1572 10.1411C18.4353 9.77778 17.4902 9.77778 15.6 9.77778H8.4C6.50982 9.77778 5.56473 9.77778 4.84278 10.1411C4.20774 10.4607 3.69143 10.9706 3.36785 11.5978C3 12.3108 3 13.2443 3 15.1111V16.6667C3 18.5335 3 19.4669 3.36785 20.18C3.69143 20.8072 4.20774 21.3171 4.84278 21.6367C5.56473 22 6.50982 22 8.4 22Z" stroke="currentColor" stroke-width="2" stroke-linecap="round" stroke-linejoin="round"/>
</svg>
