<svg width="24" height="24" viewBox="0 0 24 24" fill="none" xmlns="http://www.w3.org/2000/svg">
<path d="M11.3082 2.65834C11.5648 2.04357 12.4358 2.04357 12.6924 2.65834L14.894 7.93223C14.9966 8.17792 15.2217 8.35082 15.4855 8.38653L21.2879 9.17186C21.9381 9.25985 22.1698 10.0813 21.6615 10.4962L17.1812 14.1522C16.9597 14.3329 16.8603 14.6238 16.9247 14.9024L18.3571 21.0922C18.5122 21.7624 17.7586 22.2704 17.1956 21.8752L12.4312 18.5313C12.1726 18.3498 11.828 18.3498 11.5694 18.5313L6.80501 21.8752C6.24198 22.2704 5.48839 21.7624 5.64346 21.0923L7.07577 14.9023C7.14021 14.6238 7.04073 14.3329 6.81926 14.1522L2.33911 10.4962C1.83079 10.0813 2.06253 9.25986 2.71271 9.17186L8.5151 8.38653C8.77893 8.35082 9.00406 8.17792 9.10663 7.93223L11.3082 2.65834Z" stroke="currentColor" stroke-width="2" stroke-miterlimit="3.3292" stroke-linecap="round" stroke-linejoin="round"/>
</svg>
